<?xml version="1.0" encoding="UTF-8"?>
<svg width="16px" height="16px" viewBox="0 0 16 16" version="1.1" xmlns="http://www.w3.org/2000/svg" xmlns:xlink="http://www.w3.org/1999/xlink">
    <!-- Generator: Sketch 63.1 (92452) - https://sketch.com -->
    <title>ico_yfw</title>
    <desc>Created with Sketch.</desc>
    <g id="ico_yfw" stroke="none" stroke-width="1" fill="none" fill-rule="evenodd">
        <path d="M15,-4.63884904e-17 C15.5522847,-1.25708029e-17 16,0.44771525 16,1 L16,3 C16,3.55228475 15.5522847,4 15,4 L1,4 C0.44771525,4 0,3.55228475 0,3 L0,1 C0,0.44771525 0.44771525,-2.65196446e-15 1,-2.61814677e-15 L15,-4.63884904e-17 Z M13,1 C12.4477153,1 12,1.44771525 12,2 C12,2.55228475 12.4477153,3 13,3 C13.5522847,3 14,2.55228475 14,2 C14,1.44771525 13.5522847,1 13,1 Z" id="形状结合" fill="#53595D"></path>
        <path d="M15,6 C15.5522847,6 16,6.44771525 16,7 L16,9 C16,9.55228475 15.5522847,10 15,10 L1,10 C0.44771525,10 0,9.55228475 0,9 L0,7 C0,6.44771525 0.44771525,6 1,6 L15,6 Z M13,7 C12.4477153,7 12,7.44771525 12,8 C12,8.55228475 12.4477153,9 13,9 C13.5522847,9 14,8.55228475 14,8 C14,7.44771525 13.5522847,7 13,7 Z" id="形状结合备份" fill="#53595D"></path>
        <path d="M15,12 C15.5522847,12 16,12.4477153 16,13 L16,15 C16,15.5522847 15.5522847,16 15,16 L1,16 C0.44771525,16 0,15.5522847 0,15 L0,13 C0,12.4477153 0.44771525,12 1,12 L15,12 Z M13,13 C12.4477153,13 12,13.4477153 12,14 C12,14.5522847 12.4477153,15 13,15 C13.5522847,15 14,14.5522847 14,14 C14,13.4477153 13.5522847,13 13,13 Z" id="形状结合备份-2" fill="#53595D"></path>
    </g>
</svg>