<svg xmlns="http://www.w3.org/2000/svg" viewBox="0 0 15.94 16"><title>资源 12</title><g id="图层_2" data-name="图层 2"><g id="图层_1-2" data-name="图层 1"><path d="M15.68,6.93,12.76,1.27A2.35,2.35,0,0,0,10.67,0H5.27A2.36,2.36,0,0,0,3.18,1.27L.26,6.92a2.35,2.35,0,0,0,0,2.16l2.92,5.65A2.36,2.36,0,0,0,5.27,16h5.4a2.35,2.35,0,0,0,2.09-1.27l2.92-5.65A2.33,2.33,0,0,0,15.68,6.93ZM8,14.64A1.23,1.23,0,1,1,9.2,13.41h0A1.22,1.22,0,0,1,8,14.64Zm.91-4.37h0a.87.87,0,0,1-.91.85H8a.87.87,0,0,1-.9-.84h0L6.35,2.91a1.63,1.63,0,1,1,3.26,0Z"/></g></g></svg>