<?xml version="1.0" encoding="utf-8"?>
<!-- Generator: Adobe Illustrator 19.0.0, SVG Export Plug-In . SVG Version: 6.00 Build 0)  -->
<svg version="1.1" id="图层_1" xmlns="http://www.w3.org/2000/svg" xmlns:xlink="http://www.w3.org/1999/xlink" x="0px" y="0px"
	 viewBox="0 0 16 16" style="enable-background:new 0 0 16 16;" xml:space="preserve">
<style type="text/css">
	.st0{display:none;}
	.st1{display:inline;}
	.st2{fill-rule:evenodd;clip-rule:evenodd;fill:#555859;}
	.st3{fill:#555859;}
</style>
<g id="XMLID_2_" class="st0">
	<g id="XMLID_88_" class="st1">
		<path id="XMLID_89_" class="st2" d="M2,11H0v5h5v-2H2V11z M2,2h3V0H0v5h2V2z M11,0v2h3v3h2V0H11z M14,8c0,0-0.8-5-6-5S2,8,2,8
			s1.6,5,6,5C12.4,13,14,8,14,8z M8,11.3c-2,0-4-1.5-4-3.3c0-1.8,1.9-3.3,4-3.3c2.1,0,4,1.5,4,3.3C12,9.8,10,11.3,8,11.3z M14,14h-3
			v2h5v-5h-2V14z M7.9,6.3C7,6.3,6.2,7.1,6.2,8c0,0.9,0.7,1.7,1.7,1.7c0.9,0,1.7-0.7,1.7-1.7C9.6,7.1,8.8,6.3,7.9,6.3z"/>
	</g>
</g>
<g id="XMLID_1_">
	<g id="XMLID_69_">
		<path id="XMLID_70_" class="st3" d="M0,0v16h16V0H0z M12.1,12.2H7.6v-2.1h4.5V12.2z M13.9,3.7h-3.2L8.5,6.1H3.7v7.7H2.1V2.1h11.7
			V3.7z"/>
	</g>
</g>
</svg>
