<svg xmlns="http://www.w3.org/2000/svg" viewBox="0 0 16 15.99"><title>资源 8</title><g id="图层_2" data-name="图层 2"><g id="图层_1-2" data-name="图层 1"><path d="M14.24,12.43,10.39,8.64,8.65,10.5a1.49,1.49,0,0,1-2.1.14l0,0L4.89,9.2,0,4.9V15.2A.74.74,0,0,0,.66,16H15.33A.74.74,0,0,0,16,15.2V13h-.47A1.82,1.82,0,0,1,14.24,12.43Z"/><path d="M15.33,0H.66A.74.74,0,0,0,0,.79V1.2H0L5.92,6.42,7.53,7.83,9.26,6a1.52,1.52,0,0,1,2.15-.08l.08.08,3.84,3.79a.26.26,0,0,0,.18.07H16v-9A.73.73,0,0,0,15.34,0ZM13.24,4.55a1.84,1.84,0,1,1,1.84-1.84,1.84,1.84,0,0,1-1.84,1.84Z"/></g></g></svg>