<svg xmlns="http://www.w3.org/2000/svg" viewBox="0 0 15.75 16"><title>资源 4</title><g id="图层_2" data-name="图层 2"><g id="图层_1-2" data-name="图层 1"><path d="M10.05.09a1.32,1.32,0,0,0-1.3.19L3.35,4.79H1.2A1.15,1.15,0,0,0,0,5.87v4.52a1.15,1.15,0,0,0,1.2,1.07H3.51l5.27,4.26a1.33,1.33,0,0,0,.81.28,1.63,1.63,0,0,0,.49-.09,1.1,1.1,0,0,0,.72-1V1.09A1.08,1.08,0,0,0,10.05.09Z"/><path d="M10.18,2.2h-.5V3.81h.5a4.2,4.2,0,0,1,0,8.39h-.5v1.61h.5a5.81,5.81,0,0,0,0-11.61Z"/><path d="M13.35,8a2.74,2.74,0,0,0-2.74-2.73h-.56V6.91h.52a1.12,1.12,0,0,1,1,1.23,1.14,1.14,0,0,1-1,1H10v1.61h.6a2.74,2.74,0,0,0,2.78-2.7Z"/></g></g></svg>