<svg xmlns="http://www.w3.org/2000/svg" viewBox="0 0 15.99 16.01"><defs><style>.cls-1{fill:none;}</style></defs><title>资源 5</title><g id="图层_2" data-name="图层 2"><g id="图层_1-2" data-name="图层 1"><path class="cls-1" d="M12.24,4H3.75a1.25,1.25,0,0,0,0,2.5h8.49a1.25,1.25,0,0,0,0-2.5Z"/><path d="M14.28,0H1.71A1.72,1.72,0,0,0,0,1.71H0V14.29A1.72,1.72,0,0,0,1.7,16H14.28A1.72,1.72,0,0,0,16,14.29V1.72A1.72,1.72,0,0,0,14.28,0ZM3.9,12.69a1.4,1.4,0,1,1,1.39-1.41h0A1.4,1.4,0,0,1,3.9,12.69Zm4.1,0a1.4,1.4,0,1,1,1.39-1.41h0A1.4,1.4,0,0,1,8,12.69H8Zm4.09,0a1.4,1.4,0,1,1,1.4-1.4,1.4,1.4,0,0,1-1.4,1.4Zm.15-6.21H3.75a1.25,1.25,0,0,1,0-2.5h8.49a1.25,1.25,0,0,1,0,2.5Z"/></g></g></svg>